<svg id="Layer_1" data-name="Layer 1" xmlns="http://www.w3.org/2000/svg" xmlns:xlink="http://www.w3.org/1999/xlink" viewBox="0 0 408.69 120.01"><defs><style>.cls-1{fill:none;}.cls-2{fill:#fff;}.cls-3{clip-path:url(#clip-path);}.cls-4{fill:#8f8f8f;}.cls-5{fill:#4d4d4d;}.cls-6{fill:#6ccef5;}.cls-7{fill:#00efb6;}.cls-8{fill:#ffa7ff;}.cls-9{clip-path:url(#clip-path-3);}.cls-10{fill:url(#linear-gradient);}.cls-11{clip-path:url(#clip-path-4);}.cls-12{fill:url(#linear-gradient-2);}.cls-13{clip-path:url(#clip-path-5);}.cls-14{fill:url(#linear-gradient-3);}.cls-15{clip-path:url(#clip-path-6);}.cls-16{fill:url(#linear-gradient-4);}.cls-17{clip-path:url(#clip-path-7);}.cls-18{fill:url(#linear-gradient-5);}</style><clipPath id="clip-path"><rect class="cls-1" width="120.01" height="120.01"/></clipPath><clipPath id="clip-path-3"><path class="cls-1" d="M61.66,33.27,44.71,96.06h0c6.35,2.3,12.07-1.42,14.17-9.23L75.83,24a10.8,10.8,0,0,0-3.66-.67c-4.8,0-8.82,3.63-10.51,9.9"/></clipPath><linearGradient id="linear-gradient" x1="97.13" y1="-252.79" x2="97.24" y2="-252.79" gradientTransform="matrix(0, 776.89, 776.89, 0, 196448.39, -75442.17)" gradientUnits="userSpaceOnUse"><stop offset="0" stop-color="#ffa7ff"/><stop offset="0.5" stop-color="#6ccef5"/><stop offset="1" stop-color="#00efb6"/></linearGradient><clipPath id="clip-path-4"><path class="cls-1" d="M79.82,39.64,68.07,83.18h0c6.34,2.3,12-1.42,14.15-9.22L94,30.43a10.92,10.92,0,0,0-3.67-.68c-4.8,0-8.81,3.63-10.5,9.89"/></clipPath><linearGradient id="linear-gradient-2" x1="97.13" y1="-252.86" x2="97.24" y2="-252.86" gradientTransform="matrix(0, 776.89, 776.89, 0, 196524.57, -75465.13)" xlink:href="#linear-gradient"/><clipPath id="clip-path-5"><path class="cls-1" d="M38.3,46,26.55,89.48h0c6.35,2.3,12.07-1.42,14.17-9.23L52.47,36.71h0A10.8,10.8,0,0,0,48.81,36C44,36,40,39.68,38.3,46"/></clipPath><linearGradient id="linear-gradient-3" x1="97.13" y1="-252.72" x2="97.24" y2="-252.72" gradientTransform="matrix(0, 776.89, 776.89, 0, 196373.67, -75419.4)" xlink:href="#linear-gradient"/><clipPath id="clip-path-6"><path class="cls-1" d="M13.49,64l-5.1,18.9c6.35,2.3,12.07-1.42,14.17-9.23l5.1-18.91A10.79,10.79,0,0,0,24,54.07c-4.81,0-8.83,3.64-10.52,9.91"/></clipPath><linearGradient id="linear-gradient-4" x1="97.13" y1="-252.62" x2="97.24" y2="-252.62" gradientTransform="matrix(0, 776.89, 776.89, 0, 196277.39, -75393.8)" xlink:href="#linear-gradient"/><clipPath id="clip-path-7"><path class="cls-1" d="M98,46.23l-5.1,18.92h0c6.34,2.3,12-1.42,14.15-9.22L112.15,37h0a10.75,10.75,0,0,0-3.65-.67c-4.8,0-8.81,3.63-10.5,9.89"/></clipPath><linearGradient id="linear-gradient-5" x1="97.13" y1="-252.96" x2="97.24" y2="-252.96" gradientTransform="matrix(0, 776.89, 776.89, 0, 196620.9, -75490.68)" xlink:href="#linear-gradient"/></defs><path class="cls-2" d="M161.14,49.86a12.48,12.48,0,0,1-12.86,12.86h-7.77V78.86h-7.78V37h15.55A12.47,12.47,0,0,1,161.14,49.86Zm-7.18,0a5.48,5.48,0,0,0-5.86-5.68h-7.59V55.54h7.59A5.48,5.48,0,0,0,154,49.86Z"/><path class="cls-2" d="M175.07,62.3V78.86h-7.65V37h7.65V55.24h18.66V37h7.65V78.86h-7.65V62.3Z"/><path class="cls-2" d="M207.72,57.93c0-12.32,8.73-21.64,20.93-21.64s20.93,9.32,20.93,21.64-8.73,21.65-20.93,21.65S207.72,70.25,207.72,57.93Zm34.09,0c0-8-5.39-13.87-13.16-13.87s-13.16,5.86-13.16,13.87,5.39,13.88,13.16,13.88S241.81,66,241.81,57.93Z"/><path class="cls-2" d="M295.26,37V78.86h-7.83L264.59,48.3V78.86h-7.78V37h9.09l21.59,29.13V37Z"/><path class="cls-2" d="M301.6,57.93c0-12.32,8.73-21.64,20.93-21.64s20.93,9.32,20.93,21.64-8.73,21.65-20.93,21.65S301.6,70.25,301.6,57.93Zm34.09,0c0-8-5.39-13.87-13.16-13.87s-13.15,5.86-13.15,13.87,5.38,13.88,13.15,13.88S335.69,66,335.69,57.93Z"/><path class="cls-2" d="M389.15,37V78.86h-7.84L358.47,48.3V78.86h-7.78V37h9.09l21.59,29.13V37Z"/><g class="cls-3"><path class="cls-4" d="M39.3,53.08v0Z"/><polygon class="cls-5" points="52.47 85.61 44.71 96.06 44.72 47.17 52.47 36.71 52.47 85.61"/><polygon class="cls-5" points="34.31 79.03 26.55 89.48 19.91 65.2 27.66 54.74 34.31 79.03"/><path class="cls-4" d="M75.93,45.26v0Z"/><polygon class="cls-5" points="75.83 72.73 68.07 83.19 68.07 34.49 75.83 24.04 75.83 72.73"/><polygon class="cls-5" points="100.65 54.71 92.89 65.16 86.23 40.89 93.99 30.43 100.65 54.71"/><g class="cls-3"><path class="cls-6" d="M44.71,96.06h0L61.66,33.27c2.11-7.81,7.82-11.53,14.17-9.23L58.88,86.83c-2.1,7.81-7.82,11.53-14.17,9.23"/><path class="cls-7" d="M68.09,83.19h0L79.82,39.64c2.11-7.8,7.82-11.52,14.17-9.21h0L82.24,74c-2.11,7.8-7.81,11.52-14.15,9.22"/><path class="cls-8" d="M26.55,89.48h0L38.3,46c2.11-7.81,7.82-11.54,14.17-9.24L40.72,80.25c-2.1,7.81-7.82,11.53-14.17,9.23"/><path class="cls-8" d="M8.39,82.88h0L13.49,64c2.11-7.81,7.82-11.53,14.17-9.24l-5.1,18.91c-2.1,7.81-7.82,11.53-14.17,9.23"/><path class="cls-7" d="M92.89,65.16h0L98,46.23c2.11-7.8,7.81-11.52,14.15-9.22h0L107,55.94c-2.1,7.8-7.81,11.52-14.15,9.22"/></g><g class="cls-9"><rect class="cls-10" x="20.41" y="38.07" width="79.73" height="45.59" transform="translate(-11.49 107.64) rotate(-78.38)"/></g><g class="cls-11"><rect class="cls-12" x="51.13" y="39.31" width="59.81" height="36.61" transform="translate(8.27 125.38) rotate(-78.38)"/></g><g class="cls-13"><rect class="cls-14" x="9.6" y="45.6" width="59.82" height="36.62" transform="translate(-31.05 89.74) rotate(-78.38)"/></g><g class="cls-15"><rect class="cls-16" x="0.85" y="57.05" width="34.35" height="25.15" transform="translate(-53.8 73.26) rotate(-78.38)"/></g><g class="cls-17"><rect class="cls-18" x="85.33" y="39.32" width="34.36" height="25.15" transform="translate(31.03 141.85) rotate(-78.38)"/></g></g></svg>